PathFileType	4	(x/y/z)	S01_M20_T03.trc
DataRate	CameraRate	NumFrames	NumMarkers	Units	OrigDataRate	OrigDataStartFrame	OrigNumFrames
240	240	6	51	mm	240	1	488
Frame#	Time	Sternum			R.Acromium			L.Acromium			Top.Head			R.ASIS			L.ASIS			R.PSIS			L.PSIS			R.Great.Tro			L.Great.Tro			R.Iliac.Crest			L.Iliac.Crest			V.Sacral			R.Thigh.Upper.Post			R.Thigh.Lower.Ant			R.Thigh.Lower.Post			R.Thigh.Upper.Ant			R.Knee.Lat			R.Knee.Med			R.Shank.Upper.Post			R.Shank.Lower.Ant			R.Shank.Lower.Post			R.Shank.Upper.Ant			R.Ankle.Lat			R.Ankle.Med			R.Heel.Upper			R.Heel.Med			R.Heel.Lat			R.Toe.Lat			R.Toe.Med			R.Toe.Tip			L.Thigh.Upper.Post			L.Thigh.Lower.Ant			L.Thigh.Lower.Post			L.Thigh.Upper.Ant			L.Knee.Lat			L.Knee.Med			L.Shank.Upper.Post			L.Shank.Lower.Ant			L.Shank.Lower.Post			L.Shank.Upper.Ant			L.Ankle.Lat			L.Ankle.Med			L.Heel.Upper			L.Heel.Med			L.Heel.Lat			L.Toe.Lat			L.Toe.Med			L.Toe.Tip			Cervical.Spine			Back			
		X1	Y1	Z1	X2	Y2	Z2	X3	Y3	Z3	X4	Y4	Z4	X5	Y5	Z5	X6	Y6	Z6	X7	Y7	Z7	X8	Y8	Z8	X9	Y9	Z9	X10	Y10	Z10	X11	Y11	Z11	X12	Y12	Z12	X13	Y13	Z13	X14	Y14	Z14	X15	Y15	Z15	X16	Y16	Z16	X17	Y17	Z17	X18	Y18	Z18	X19	Y19	Z19	X20	Y20	Z20	X21	Y21	Z21	X22	Y22	Z22	X23	Y23	Z23	X24	Y24	Z24	X25	Y25	Z25	X26	Y26	Z26	X27	Y27	Z27	X28	Y28	Z28	X29	Y29	Z29	X30	Y30	Z30	X31	Y31	Z31	X32	Y32	Z32	X33	Y33	Z33	X34	Y34	Z34	X35	Y35	Z35	X36	Y36	Z36	X37	Y37	Z37	X38	Y38	Z38	X39	Y39	Z39	X40	Y40	Z40	X41	Y41	Z41	X42	Y42	Z42	X43	Y43	Z43	X44	Y44	Z44	X45	Y45	Z45	X46	Y46	Z46	X47	Y47	Z47	X48	Y48	Z48	X49	Y49	Z49	X50	Y50	Z50	X51	Y51	Z51	

1	0	NaN	NaN	NaN	-1495.9	1499.8	440.31	-1488.5	1513	111.22	-1544.5	1821.7	270.98	NaN	NaN	NaN	NaN	NaN	NaN	-1643.7	1035.8	312.89	-1630.1	1031.5	210.62	-1522.8	937.46	506.07	-1464.5	954.77	82.094	-1510.4	1095.2	486.09	-1478.4	1078	86.414	-1648	996.58	258.01	-1579.1	645.08	499.4	-1512.6	561.78	500.34	-1588.6	556.21	492.36	NaN	NaN	NaN	-1595.2	492.84	498.49	NaN	NaN	NaN	-1736.8	429.52	498.55	NaN	NaN	NaN	-1792	390.62	481.07	-1708.7	372.07	485.44	-1956.5	265.03	436.13	-1916.8	240.08	351.1	-1994.4	318.15	373.27	-2004.2	297.57	337.1	-2026.7	295.29	397.62	-1981	106.61	447.18	-1937.3	97.254	333.06	NaN	NaN	NaN	-1394.9	670.75	116.66	-1289.8	635.77	123.23	-1354.6	592.2	140.23	-1339.9	713.87	98.111	-1275.7	533.18	138.51	-1266.1	547.85	278.72	-1293.4	389.13	119.38	-1219.1	312.04	152.28	-1278.7	312.51	125	-1230.8	387.89	141.87	-1262.3	101.15	163.7	-1240.7	117.41	264.27	-1331.9	70.962	210.91	-1320.8	47.845	245.13	-1321.7	45.5	182.91	-1110.6	43.909	156.52	-1089.2	58.585	277.68	-1024.7	70.443	227.13	-1593.6	1558.9	272.9	-1662.8	1247.5	282.04
2	0.0041667	NaN	NaN	NaN	-1491	1500.8	439.6	-1483.6	1513.8	110.55	-1539.4	1822.7	269.97	NaN	NaN	NaN	NaN	NaN	NaN	-1639	1036.5	312.23	-1625.3	1032.2	209.96	-1517.7	938.36	505.54	-1459.8	955.48	81.527	-1505.9	1095.9	485.6	-1474.1	1078.5	85.495	-1643.2	997.26	257.34	-1570.7	645.33	499.47	-1503.4	562.54	500.67	-1579.2	556.3	492.55	NaN	NaN	NaN	-1584.1	492.81	498.6	NaN	NaN	NaN	-1726.8	430.43	499.01	NaN	NaN	NaN	-1782.3	391.91	481.5	-1699	372.82	485.58	-1947.6	267.9	436.09	-1907.7	242.21	351.05	-1985	320.74	372.66	-1995	300.06	336.69	-2017.7	298.46	397.24	-1973.2	109.91	448.11	-1929.3	99.126	334.3	NaN	NaN	NaN	-1391.1	671.4	116.41	-1286	636.08	123.27	-1351.1	592.66	140.07	-1335.8	714.32	98.089	-1272.3	533.26	138.64	-1262.9	548.12	278.81	-1291.3	389.32	119.64	-1217.4	311.87	152.33	-1277.1	312.65	125.17	-1228.8	387.71	142	-1261.9	101.25	163.83	-1240.4	117.38	264.35	-1331.7	71.091	210.94	-1320.7	47.97	245.11	-1321.7	45.694	182.89	-1110.4	43.654	156.6	-1089.1	58.048	277.83	-1024.5	69.732	227.37	-1588.8	1559.9	272.18	-1658.1	1248.5	281.52
3	0.0083333	NaN	NaN	NaN	-1485.8	1501.8	438.87	-1478.5	1514.7	109.87	-1534	1823.8	268.93	NaN	NaN	NaN	NaN	NaN	NaN	-1634.1	1037.2	311.54	-1620.2	1033	209.26	-1512.3	939.33	505.01	-1454.8	956.23	80.954	-1501.2	1096.6	485.11	-1469.7	1079	84.547	-1638.1	997.98	256.64	-1562	645.64	499.54	-1493.8	563.38	501.02	-1569.4	556.44	492.75	NaN	NaN	NaN	-1572.7	492.86	498.73	NaN	NaN	NaN	-1716.4	431.41	499.46	NaN	NaN	NaN	-1772.2	393.25	481.92	-1688.8	373.64	485.72	-1938.2	270.82	436.03	-1898.2	244.38	351	-1975.2	323.34	372.02	-1985.4	302.55	336.26	-2008.4	301.65	396.84	-1964.8	113.28	449.12	-1920.8	101.02	335.6	NaN	NaN	NaN	-1387.1	672.08	116.14	-1282.1	636.4	123.31	-1347.4	593.13	139.9	-1331.7	714.79	98.061	-1268.7	533.34	138.75	-1259.6	548.39	278.89	-1289.2	389.52	119.87	-1215.7	311.69	152.38	-1275.4	312.79	125.32	-1226.7	387.53	142.12	-1261.6	101.35	163.96	-1240	117.37	264.43	-1331.5	71.225	210.95	-1320.7	48.101	245.09	-1321.6	45.888	182.86	-1110.2	43.393	156.67	-1088.9	57.506	277.99	-1024.3	69.008	227.61	-1583.7	1561	271.43	-1653.2	1249.6	280.98
4	0.0125	NaN	NaN	NaN	-1480.6	1502.9	438.13	-1473.2	1515.5	109.17	-1528.5	1824.9	267.88	NaN	NaN	NaN	NaN	NaN	NaN	-1629	1038	310.82	-1615.1	1033.8	208.54	-1506.8	940.35	504.48	-1449.7	956.99	80.386	-1496.4	1097.5	484.62	-1465	1079.5	83.578	-1632.9	998.76	255.91	-1553	645.99	499.6	-1483.9	564.3	501.37	-1559.3	556.64	492.94	NaN	NaN	NaN	-1561	493.03	498.87	NaN	NaN	NaN	-1705.7	432.46	499.88	NaN	NaN	NaN	-1761.8	394.65	482.31	-1678.3	374.52	485.86	-1928.5	273.76	435.96	-1888.4	246.56	350.94	-1965	325.93	371.36	-1975.4	304.98	335.81	-1998.7	304.82	396.42	-1956	116.66	450.21	-1911.8	102.91	336.95	NaN	NaN	NaN	-1383	672.79	115.86	-1278.1	636.73	123.33	-1343.6	593.63	139.71	-1327.4	715.28	98.025	-1265.1	533.42	138.86	-1256.2	548.63	278.95	-1287.1	389.71	120.08	-1213.9	311.51	152.42	-1273.7	312.92	125.45	-1224.6	387.35	142.23	-1261.3	101.45	164.09	-1239.7	117.35	264.51	-1331.4	71.364	210.97	-1320.6	48.237	245.07	-1321.5	46.082	182.84	-1110	43.127	156.75	-1088.8	56.967	278.14	-1024.1	68.28	227.85	-1578.5	1562.1	270.67	-1648.2	1250.7	280.41
5	0.016667	NaN	NaN	NaN	-1475.3	1504.1	437.39	-1467.8	1516.5	108.46	-1522.9	1826	266.83	NaN	NaN	NaN	NaN	NaN	NaN	-1623.9	1038.8	310.08	-1609.8	1034.7	207.8	-1501.2	941.44	503.97	-1444.4	957.78	79.828	-1491.5	1098.3	484.13	-1460.2	1080.1	82.599	-1627.6	999.58	255.16	-1543.7	646.4	499.66	-1473.8	565.3	501.73	-1549	556.91	493.13	NaN	NaN	NaN	-1549.2	493.32	499.04	NaN	NaN	NaN	-1694.8	433.57	500.28	NaN	NaN	NaN	-1751.1	396.09	482.68	-1667.5	375.48	486	-1918.4	276.68	435.87	-1878.2	248.72	350.87	-1954.6	328.45	370.67	-1965.1	307.32	335.35	-1988.8	307.92	395.99	-1946.7	120.02	451.36	-1902.4	104.78	338.35	NaN	NaN	NaN	-1378.9	673.51	115.57	-1274.1	637.06	123.35	-1339.8	594.14	139.5	-1323	715.78	97.981	-1261.5	533.49	138.94	-1252.8	548.86	278.98	-1284.9	389.91	120.26	-1212.2	311.31	152.45	-1272	313.05	125.56	-1222.5	387.16	142.31	-1260.9	101.55	164.21	-1239.4	117.35	264.58	-1331.2	71.508	210.98	-1320.6	48.379	245.05	-1321.4	46.271	182.81	-1109.8	42.86	156.82	-1088.7	56.437	278.28	-1023.9	67.556	228.08	-1573.2	1563.2	269.9	-1643	1251.8	279.83
6	0.020833	NaN	NaN	NaN	-1469.9	1505.2	436.65	-1462.2	1517.5	107.75	-1517.1	1827.2	265.79	NaN	NaN	NaN	NaN	NaN	NaN	-1618.6	1039.7	309.33	-1604.4	1035.6	207.04	-1495.5	942.59	503.47	-1439.1	958.58	79.288	-1486.5	1099.2	483.65	-1455.2	1080.7	81.619	-1622.2	1000.5	254.39	-1534.3	646.88	499.72	-1463.5	566.39	502.09	-1538.4	557.26	493.31	NaN	NaN	NaN	-1537.4	493.74	499.23	NaN	NaN	NaN	-1683.6	434.74	500.65	NaN	NaN	NaN	-1740.1	397.56	483.01	-1656.5	376.5	486.13	-1908	279.54	435.76	-1867.7	250.83	350.8	-1944	330.88	369.97	-1954.6	309.53	334.88	-1978.6	310.9	395.56	-1937	123.31	452.58	-1892.6	106.58	339.79	NaN	NaN	NaN	-1374.7	674.26	115.26	-1270	637.39	123.36	-1336	594.67	139.27	-1318.6	716.3	97.926	-1257.9	533.57	139	-1249.4	549.07	278.99	-1282.7	390.1	120.4	-1210.4	311.11	152.46	-1270.3	313.17	125.64	-1220.3	386.98	142.37	-1260.6	101.66	164.32	-1239	117.35	264.64	-1331	71.656	210.98	-1320.5	48.524	245.02	-1321.3	46.455	182.78	-1109.6	42.594	156.89	-1088.5	55.923	278.42	-1023.7	66.844	228.31	-1567.8	1564.4	269.13	-1637.7	1252.9	279.22
